# xmcd CD database file
#
# Track frame offsets:
#	150
#	27102
#	58291
#	71196
#	89288
#	99145
#	120717
#	143594
#	170731
#	218993
#	235817
#	273557
#
# Disc length: 4089 seconds
#
# Revision: 0
# Processed by: cddbd v1.4PL0 Copyright (c) Steve Scherf et al.
# Submitted via: CDex 1.50Beta7
#
DISCID=ae0ff70c
DTITLE=Weather Report - Heavy Weather
DYEAR=1974
DGENRE=Jazz
TTITLE0=Birdland
TTITLE1=Remark You Made
TTITLE2=Teen Town
TTITLE3=Harlequin
TTITLE4=Rumba Mama
TTITLE5=Palladium
TTITLE6=Juggler
TTITLE7=Havona
TTITLE8=Bonus_1
TTITLE9=Bonus_2
TTITLE10=Bonus_3
TTITLE11=Bonus_4
EXTD=YEAR: 1974
EXTT0=
EXTT1=
EXTT2=
EXTT3=
EXTT4=
EXTT5=
EXTT6=
EXTT7=
EXTT8=
EXTT9=
EXTT10=
EXTT11=
PLAYORDER=
